# xmcd
#
# Track frame offsets:
#	183
#	18823
#	30923
#	45323
#	58505
#	86468
#	99513
#	124830
#	137460
#	152243
#
# Disc length: 2271 seconds
#
# Revision: 0
# Processed by: cddbd v1.5.1PL0 Copyright (c) Steve Scherf et al.
# Submitted via: audiograbber 1.83.01
#
DISCID=6a08dd0a
DTITLE=Various Artist - Tuesday's Just As Bad
DYEAR=1900
DGENRE=
TTITLE0=Bobby Bland - Stormy Monday Blues
TTITLE1=Muddy Waters - Same Thing
TTITLE2=Junior Wells - Checking On My Baby
TTITLE3=Slim Harpo - Baby Scratch My Back
TTITLE4=B.B. King - Swseet Sixteen (Parts 1&2)
TTITLE5=Howlin' Wolf - I Ain't Superstitious
TTITLE6=Buddy Guy - Sweet Little Angel
TTITLE7=Jimmy Reed - Bright Lights Big City
TTITLE8=Elmore James - It Hurts Me Too
TTITLE9=Jimmy Cotton Blues Quartet - Blues Keep Falling
EXTD=
EXTT0=
EXTT1=
EXTT2=
EXTT3=
EXTT4=
EXTT5=
EXTT6=
EXTT7=
EXTT8=
EXTT9=
PLAYORDER=
